<svg width="900" height="600" viewBox="0 0 900 600" fill="none" xmlns="http://www.w3.org/2000/svg">
<g clip-path="url(#clip0_24_2)">
<path d="M150 450H0V599H150V450Z" fill="#5D6E7A" fill-opacity="0.05"/>
<path d="M900 450H750V599H900V450Z" fill="#5D6E7A" fill-opacity="0.05"/>
<path d="M300 150H150V300H300V150Z" fill="#5D6E7A" fill-opacity="0.3"/>
<path d="M750 301H599V450H750V301Z" fill="#5D6E7A" fill-opacity="0.22"/>
<path d="M599 450H450V600H599V450Z" fill="#5D6E7A" fill-opacity="0.05"/>
<path d="M900 151H750V300H900V151Z" fill="#5D6E7A" fill-opacity="0.1"/>
<path d="M450 0H300V150H450V0Z" fill="#5D6E7A" fill-opacity="0.1"/>
<path fill-rule="evenodd" clip-rule="evenodd" d="M363.85 205L379.167 383.204L447.897 403L516.819 383.181L532.15 205.003L363.85 205ZM500.201 247.291L499.242 258.37L498.819 263.281H498.753H448H447.928H418.194L420.119 285.663H447.925H448H491.224H496.903L496.389 291.534L491.437 349.079L491.121 352.768L448 365.164L447.902 365.197L404.744 352.768L401.794 318.448H411.541H422.942L424.442 335.884L447.905 342.454L447.925 342.448L471.426 335.866L473.871 307.521H448H447.928H400.849L395.673 247.291L395.17 241.423H447.928H448H500.707L500.201 247.291Z" fill="#5D6E7A"/>
<path d="M856.168 218.085L831.615 193.534C830.959 192.879 830.053 192.474 829.052 192.474C828.051 192.474 827.145 192.879 826.489 193.534L821.402 198.63L827.869 205.097C828.281 204.952 828.756 204.87 829.251 204.87C831.63 204.87 833.557 206.797 833.557 209.177C833.557 209.681 833.471 210.163 833.312 210.613L833.321 210.583L839.55 216.815C839.966 216.667 840.448 216.581 840.949 216.581C843.326 216.581 845.254 218.509 845.254 220.886C845.254 223.264 843.326 225.191 840.949 225.191C838.571 225.191 836.644 223.264 836.644 220.886C836.644 220.299 836.762 219.74 836.974 219.23L836.962 219.259L831.131 213.457V228.746C832.564 229.468 833.529 230.927 833.529 232.61C833.529 234.992 831.598 236.923 829.217 236.923C826.836 236.923 824.904 234.992 824.904 232.61C824.904 231.422 825.384 230.347 826.162 229.567C826.558 229.172 827.029 228.851 827.552 228.626L827.58 228.615V213.176C826.001 212.512 824.914 210.977 824.914 209.19C824.914 208.59 825.036 208.02 825.257 207.5L825.246 207.529L818.891 201.144L802.054 217.97C801.401 218.629 801 219.534 801 220.535C801 221.537 801.403 222.442 802.056 223.1L826.611 247.648C827.265 248.304 828.171 248.709 829.172 248.709C830.173 248.709 831.077 248.304 831.733 247.648L856.172 223.209C856.828 222.555 857.235 221.647 857.235 220.648C857.235 219.649 856.828 218.741 856.172 218.087L856.168 218.085Z" fill="#5D6E7A"/>
<path d="M671.624 388.948C672.724 389.004 673.849 389.044 674.987 389.044C676.137 389.044 677.274 389.017 678.388 388.948C677.274 390.565 676.173 391.996 675.009 393.359L675.025 393.341C673.867 391.993 672.754 390.56 671.706 389.069L671.624 388.948ZM660.225 387.151C662.391 387.769 665.034 388.294 667.731 388.618L667.993 388.642C669.643 391.187 671.312 393.426 673.102 395.533L673.08 395.506C670.458 398.792 666.919 401.101 662.915 401.93L662.805 401.948C662.797 401.948 662.789 401.948 662.781 401.948C662.285 401.948 661.817 401.811 661.407 401.568L661.423 401.577C659.758 400.51 659.036 396.429 659.598 391.185C659.732 389.893 659.952 388.534 660.223 387.149L660.225 387.151ZM689.799 387.122C690.036 388.186 690.258 389.543 690.416 390.922L690.434 391.115C691.008 396.357 690.3 400.434 688.649 401.523C688.281 401.752 687.841 401.887 687.373 401.887C687.327 401.887 687.281 401.885 687.235 401.883H687.241C683.133 401.04 679.596 398.747 676.98 395.502L676.966 395.484C678.724 393.411 680.381 391.176 681.899 388.824L682.015 388.636C684.968 388.29 687.615 387.755 690.194 387.025L689.799 387.119V387.122ZM662.563 378.74C663.063 379.84 663.588 380.936 664.164 382.037C664.739 383.131 665.326 384.2 665.926 385.244C664.19 384.959 662.513 384.599 660.911 384.161C661.361 382.394 661.925 380.563 662.561 378.735L662.563 378.74ZM687.427 378.683C688.089 380.527 688.651 382.367 689.117 384.15C687.517 384.59 685.826 384.963 684.078 385.244C684.678 384.191 685.278 383.106 685.84 381.994C686.402 380.9 686.929 379.782 687.431 378.681L687.427 378.683ZM658.232 366.67C659.104 369.989 660.041 372.765 661.131 375.442L660.981 375.034C660.049 377.291 659.126 380.051 658.37 382.892L658.266 383.353C656.854 382.866 655.717 382.387 654.611 381.85L654.841 381.949C650.512 379.881 647.711 377.161 647.711 375.004C647.711 372.848 650.512 370.115 654.841 368.055C655.891 367.55 657.044 367.094 658.232 366.67ZM691.72 366.658C692.93 367.078 694.081 367.548 695.157 368.055C699.486 370.133 702.287 372.848 702.287 375.004C702.275 377.161 699.474 379.887 695.145 381.951C694.095 382.457 692.944 382.91 691.758 383.335C690.878 380.004 689.941 377.23 688.855 374.549L689.007 374.971C689.935 372.716 690.86 369.955 691.614 367.114L691.72 366.652V366.658ZM684.062 364.765C685.8 365.055 687.475 365.41 689.077 365.852C688.627 367.626 688.065 369.45 687.427 371.278C686.927 370.185 686.402 369.082 685.826 367.983C685.264 366.883 684.664 365.812 684.064 364.767L684.062 364.765ZM665.912 364.765C665.312 365.823 664.712 366.905 664.152 368.022C663.59 369.115 663.063 370.216 662.563 371.317C661.901 369.475 661.339 367.64 660.873 365.852C662.473 365.432 664.16 365.057 665.91 364.769L665.912 364.765ZM674.999 364.051C676.85 364.051 678.692 364.145 680.505 364.311C681.52 365.945 682.505 367.685 683.462 369.531C684.391 371.328 685.239 373.149 686.006 374.993C685.236 376.833 684.392 378.67 683.474 380.467C682.523 382.32 681.541 384.083 680.523 385.716C678.702 385.893 676.858 385.99 674.997 385.99C673.146 385.99 671.304 385.891 669.491 385.729C668.477 384.096 667.487 382.349 666.534 380.509C665.605 378.713 664.757 376.892 663.99 375.047C664.748 373.203 665.604 371.361 666.522 369.562C667.473 367.709 668.455 365.953 669.473 364.32C671.294 364.141 673.138 364.046 674.999 364.046V364.051ZM674.961 356.682C676.121 358.029 677.234 359.46 678.28 360.951L678.36 361.07C677.26 361.014 676.135 360.976 674.997 360.976C673.847 360.976 672.71 361.003 671.596 361.07C672.708 359.453 673.809 358.022 674.975 356.659L674.959 356.677L674.961 356.682ZM662.755 348.12C666.863 348.964 670.398 351.257 673.016 354.501L673.03 354.519C671.272 356.594 669.615 358.829 668.097 361.185L667.981 361.373C665.03 361.717 662.383 362.247 659.806 362.977L660.199 362.883C659.918 361.508 659.71 360.176 659.564 358.898C658.99 353.656 659.698 349.58 661.349 348.495C661.761 348.277 662.243 348.142 662.751 348.124H662.757L662.755 348.12ZM687.183 348.064V348.082C687.209 348.082 687.239 348.079 687.271 348.079C687.749 348.079 688.199 348.212 688.595 348.445L688.579 348.436C690.244 349.508 690.966 353.587 690.404 358.833C690.27 360.125 690.05 361.486 689.779 362.874C687.609 362.249 684.966 361.722 682.269 361.4L682.013 361.376C680.361 358.829 678.692 356.589 676.902 354.48L676.926 354.507C679.548 351.228 683.081 348.919 687.077 348.086L687.189 348.066L687.183 348.064ZM687.195 345.004C682.309 345.838 678.08 348.502 674.991 352.344L674.975 352.365C671.864 348.524 667.635 345.878 662.869 345.076L662.757 345.061C662.731 345.061 662.699 345.061 662.667 345.061C661.685 345.061 660.763 345.35 659.964 345.858L659.992 345.842C656.555 348.068 655.785 355.004 657.56 363.707C649.949 366.346 645 370.564 645 375.009C645 379.472 649.975 383.701 657.608 386.32C655.847 395.057 656.633 402.004 660.079 404.227C660.835 404.715 661.743 405 662.709 405C662.753 405 662.797 405 662.839 404.998H662.833C667.719 404.164 671.948 401.498 675.037 397.653L675.053 397.633C678.164 401.476 682.393 404.122 687.159 404.924L687.271 404.939C687.301 404.939 687.339 404.939 687.375 404.939C688.351 404.939 689.269 404.652 690.064 404.151L690.036 404.167C693.471 401.943 694.243 395.007 692.468 386.302C700.051 383.685 705 379.458 705 375.007C705 370.544 700.025 366.315 692.392 363.689C694.153 354.961 693.367 348.007 689.921 345.782C689.157 345.29 688.241 345 687.265 345C687.239 345 687.213 345 687.187 345H687.191L687.195 345.004ZM680.575 375.009C680.575 378.475 678.072 381.284 674.985 381.284C671.898 381.284 669.395 378.475 669.395 375.009C669.395 371.543 671.898 368.734 674.985 368.734C676.529 368.734 677.926 369.437 678.938 370.571C679.95 371.707 680.575 373.275 680.575 375.009Z" fill="#5D6E7A"/>
<mask id="mask0_24_2" style="mask-type:luminance" maskUnits="userSpaceOnUse" x="45" y="345" width="60" height="60">
<path d="M105 345H45V405H105V345Z" fill="white"/>
</mask>
<g mask="url(#mask0_24_2)">
<path d="M75.0024 357C67.0024 357 62.0024 361 60.0024 369C63.0024 365 66.5024 363.5 70.5024 364.5C72.7849 365.07 74.4149 366.725 76.2224 368.56C79.1649 371.545 82.5674 375 90.0024 375C98.0024 375 103.002 371 105.002 363C102.002 367 98.5024 368.5 94.5024 367.5C92.2199 366.93 90.5899 365.275 88.7824 363.44C85.8424 360.455 82.4399 357 75.0024 357ZM60.0024 375C52.0024 375 47.0024 379 45.0024 387C48.0024 383 51.5024 381.5 55.5024 382.5C57.7849 383.07 59.4149 384.725 61.2224 386.56C64.1649 389.545 67.5674 393 75.0024 393C83.0024 393 88.0024 389 90.0024 381C87.0024 385 83.5024 386.5 79.5024 385.5C77.2199 384.93 75.5899 383.275 73.7824 381.44C70.8424 378.455 67.4399 375 60.0024 375Z" fill="#5D6E7A"/>
</g>
<mask id="mask1_24_2" style="mask-type:luminance" maskUnits="userSpaceOnUse" x="492" y="497" width="60" height="60">
<path d="M552 497H492V557H552V497Z" fill="white"/>
</mask>
<g mask="url(#mask1_24_2)">
<path d="M520.035 497.016C519.906 497.028 519.496 497.069 519.126 497.098C510.604 497.866 502.622 502.464 497.566 509.53C494.751 513.459 492.95 517.916 492.27 522.637C492.029 524.285 492 524.772 492 527.006C492 529.24 492.029 529.727 492.27 531.375C493.9 542.64 501.918 552.105 512.792 555.612C514.739 556.239 516.792 556.667 519.126 556.925C520.035 557.025 523.965 557.025 524.874 556.925C528.903 556.48 532.317 555.483 535.683 553.764C536.199 553.501 536.299 553.43 536.229 553.372C536.182 553.336 533.982 550.387 531.343 546.821L526.545 540.341L520.534 531.445C517.226 526.554 514.504 522.555 514.481 522.555C514.457 522.549 514.434 526.502 514.422 531.328C514.405 539.778 514.399 540.118 514.293 540.318C514.141 540.605 514.023 540.722 513.777 540.851C513.589 540.945 513.425 540.963 512.54 540.963H511.525L511.255 540.793C511.079 540.681 510.95 540.535 510.862 540.365L510.739 540.101L510.751 528.343L510.768 516.579L510.95 516.351C511.044 516.227 511.243 516.069 511.384 515.993C511.625 515.876 511.718 515.864 512.733 515.864C513.93 515.864 514.129 515.911 514.44 516.251C514.528 516.345 517.783 521.247 521.677 527.152C525.572 533.058 530.897 541.121 533.513 545.079L538.264 552.275L538.504 552.117C540.633 550.733 542.886 548.762 544.669 546.71C548.463 542.353 550.909 537.04 551.73 531.375C551.971 529.727 552 529.24 552 527.006C552 524.772 551.971 524.285 551.73 522.637C550.1 511.372 542.082 501.907 531.208 498.4C529.29 497.778 527.249 497.35 524.962 497.092C524.399 497.034 520.522 496.969 520.035 497.016ZM532.317 515.16C532.598 515.301 532.827 515.571 532.909 515.852C532.956 516.005 532.968 519.265 532.956 526.613L532.938 537.157L531.079 534.307L529.214 531.457V523.792C529.214 518.837 529.238 516.051 529.273 515.917C529.367 515.588 529.572 515.33 529.853 515.178C530.094 515.055 530.182 515.043 531.103 515.043C531.971 515.043 532.123 515.055 532.317 515.16Z" fill="#5D6E7A"/>
</g>
<mask id="mask2_24_2" style="mask-type:luminance" maskUnits="userSpaceOnUse" x="645" y="40" width="60" height="60">
<path d="M705 40H645V100H705V40Z" fill="white"/>
</mask>
<g mask="url(#mask2_24_2)">
<path fill-rule="evenodd" clip-rule="evenodd" d="M690.984 95.2964C685.749 95.2964 682.365 92.8006 680.715 89.5366L685.305 86.8779C686.514 88.8519 688.083 90.3013 690.864 90.3013C693.198 90.3013 694.689 89.1335 694.689 87.5225C694.689 85.0985 691.455 84.1513 689.172 83.1733C685.104 81.4423 682.404 79.2673 682.404 74.6743C682.404 70.4473 685.626 67.2256 690.663 67.2256C694.245 67.2256 696.825 68.4734 698.676 71.7344L694.287 74.5542C693.321 72.8232 692.274 72.1387 690.663 72.1387C689.01 72.1387 687.963 73.1862 687.963 74.5542C687.963 76.2462 689.01 76.9305 691.428 77.9775C696.495 80.1495 700.329 81.8559 700.329 87.4419C700.329 92.5179 696.342 95.2964 690.984 95.2964ZM678 86.7974C678 92.6384 674.403 95.7256 669.408 95.7256C664.896 95.7256 662.193 94 660.864 91H660.819H660.798H660.786L665.373 87.7935C666.258 89.3625 667.056 90.4756 668.988 90.4756C670.842 90.4756 672 89.5367 672 86.7197V67H678V86.7974ZM645 100H705V40H645V100Z" fill="#5D6E7A"/>
</g>
<path d="M101.299 68.3857C101.145 68.3745 100.967 68.367 100.787 68.367C99.8793 68.367 99.0112 68.5357 98.2124 68.8432L98.2612 68.8263C98.0268 68.9201 97.6518 68.9201 97.6199 69.2182C97.7493 69.342 97.768 69.5463 97.8768 69.7188C98.0962 70.0901 98.3662 70.4051 98.6812 70.6676L98.6868 70.6732C99.0149 70.9301 99.343 71.1795 99.688 71.3988C100.297 71.7738 100.989 71.997 101.586 72.3738C101.925 72.5932 102.272 72.8726 102.617 73.107C102.787 73.2232 102.898 73.4351 103.117 73.5101V73.4632C103.011 73.3226 102.977 73.1182 102.872 72.9626C102.714 72.8051 102.559 72.6645 102.403 72.5107C101.938 71.9013 101.4 71.3801 100.796 70.9451L100.774 70.9301C100.273 70.5888 99.1762 70.1107 98.9699 69.5351L98.9399 69.5013C99.3487 69.4432 99.7124 69.357 100.063 69.2407L100.018 69.2538C100.551 69.1132 101.038 69.1432 101.587 69.0063C101.835 68.9426 102.086 68.8657 102.337 68.787V68.6463C102.056 68.3651 101.846 67.9826 101.556 67.7201C100.789 67.0451 99.943 66.4113 99.0524 65.8413L98.968 65.7907C98.4768 65.4776 97.8524 65.2751 97.3349 65.0088C97.1474 64.9151 96.8343 64.8682 96.7255 64.7107C96.4818 64.3638 96.2662 63.9663 96.0955 63.5463L96.0805 63.5051C95.6205 62.6126 95.193 61.7045 94.798 60.7807C94.528 60.0626 94.2599 59.4738 93.958 58.9038L94.0012 58.992C92.5274 56.5188 90.4743 54.5313 88.0237 53.1757L87.943 53.1345C87.3637 52.8476 86.6905 52.6245 85.9837 52.4988L85.9368 52.4913C85.5449 52.4726 85.1549 52.4445 84.7649 52.4276C84.4912 52.2513 84.2549 52.0713 84.0337 51.8726L84.0393 51.8782C83.1487 51.3157 80.8443 50.097 80.188 51.7095C79.7662 52.7257 80.8143 53.7288 81.1762 54.2445C81.4649 54.5876 81.7274 54.972 81.9543 55.3788L81.973 55.4163C82.0837 55.6882 82.1137 55.9676 82.2243 56.2507C82.4962 57.0982 82.7718 57.7938 83.0849 58.467L83.0362 58.3507C83.2218 58.7238 83.4149 59.0407 83.6305 59.3407L83.6155 59.3182C83.7412 59.4888 83.9568 59.5695 84.0074 59.8507C83.8462 60.1901 83.7205 60.5838 83.6512 60.9945L83.6474 61.0207C83.4449 61.6432 83.3268 62.3613 83.3268 63.1057C83.3268 64.2701 83.6137 65.367 84.1199 66.3307L84.1012 66.2932C84.3524 66.6813 84.9487 67.5438 85.7474 67.2138C86.4505 66.9326 86.2949 66.042 86.4974 65.2582C86.5443 65.0707 86.5143 64.947 86.6099 64.8195V64.8551C86.8293 65.2957 87.0505 65.7157 87.2512 66.1563C87.8174 66.972 88.4905 67.6657 89.2593 68.2376L89.2837 68.2545C89.6587 68.5357 89.9568 69.0232 90.4255 69.1957V69.1488H90.3899C90.283 69.0326 90.1649 68.9295 90.0355 68.8413L90.028 68.8376C89.7374 68.5526 89.4674 68.2451 89.2237 67.9207L89.2087 67.9001C88.5974 67.0751 88.0162 66.1413 87.5118 65.1607L87.4574 65.0463C87.2005 64.5551 86.9849 64.0245 86.7787 63.5388C86.6849 63.3513 86.6849 63.0701 86.5274 62.9763C86.2499 63.2876 86.0005 63.6345 85.7924 64.0076L85.7774 64.0376C85.5374 64.737 85.3799 65.5451 85.3387 66.3832V66.4038C85.2749 66.4207 85.3068 66.4038 85.2749 66.4376C84.7743 66.3157 84.6018 65.7963 84.4143 65.3595C84.1593 64.6732 84.0112 63.8782 84.0112 63.0513C84.0112 62.3838 84.1068 61.7388 84.2868 61.1295L84.2755 61.1782C84.3862 60.8501 84.8549 59.8151 84.6674 59.5001C84.5699 59.202 84.2605 59.0313 84.088 58.7895C83.8837 58.5007 83.6962 58.1726 83.5405 57.8257L83.5255 57.7882C83.1505 56.9126 82.963 55.9413 82.5562 55.0657C82.3105 54.6082 82.0518 54.2145 81.7612 53.847L81.7743 53.8638C81.4649 53.5057 81.1799 53.1063 80.9324 52.6826L80.9118 52.6451C80.8349 52.4745 80.7243 52.1913 80.848 52.0038C80.8705 51.8951 80.9568 51.8107 81.0674 51.7938C81.2737 51.6251 81.8549 51.8445 82.0574 51.9382C82.6518 52.1632 83.1637 52.4276 83.638 52.7388L83.608 52.7201C83.8274 52.8738 84.0655 53.172 84.3468 53.2488H84.6749C85.1755 53.3595 85.7418 53.2826 86.2105 53.4195C87.0712 53.7101 87.8155 54.0738 88.5037 54.5201L88.4643 54.4957C90.5343 55.8326 92.1918 57.6401 93.313 59.7757L93.3505 59.8526C93.538 60.2126 93.6205 60.5445 93.7912 60.9195C94.1193 61.692 94.5243 62.4738 94.858 63.2201C95.1749 64.0226 95.5499 64.7163 95.9962 65.3557L95.9737 65.322C96.208 65.6501 97.1493 65.8207 97.5712 65.9913C98.0155 66.147 98.3718 66.2951 98.7168 66.462L98.6474 66.432C99.1855 66.7601 99.7105 67.1351 100.217 67.4951C100.474 67.6732 101.256 68.0651 101.302 68.3801L101.299 68.3857ZM79.3162 82.0976C79.3162 82.1257 79.318 82.1576 79.318 82.1895C79.318 83.2357 78.8512 84.1713 78.1124 84.8013L78.1068 84.8051C77.2968 85.4651 76.2524 85.8663 75.1143 85.8663C75.0262 85.8663 74.938 85.8645 74.8518 85.8588H74.863C73.4774 85.8401 72.2024 85.3901 71.158 84.6382L71.1768 84.6513L71.7318 83.5357C72.5362 83.9857 73.4924 84.2651 74.5087 84.3045H74.5199C74.5705 84.3082 74.6287 84.3101 74.6887 84.3101C75.3112 84.3101 75.8905 84.1151 76.3649 83.7832L76.3555 83.7888C76.7849 83.4626 77.0587 82.9526 77.0587 82.3788C77.0587 82.3676 77.0587 82.3582 77.0587 82.347V82.3488C77.0587 81.5763 76.5205 80.9201 75.5399 80.3688C74.6305 79.8701 72.8155 78.8295 72.8155 78.8295C71.9193 78.2745 71.3324 77.2976 71.3324 76.1838C71.3324 76.1445 71.3324 76.1051 71.3343 76.0657V76.0713C71.3324 76.0357 71.3324 75.9945 71.3324 75.9532C71.3324 74.9876 71.758 74.1213 72.4312 73.5326L72.4349 73.5288C73.1512 72.9213 74.0868 72.552 75.1087 72.552C75.1743 72.552 75.238 72.5538 75.3018 72.5557H75.2924C75.3093 72.5557 75.3299 72.5557 75.3505 72.5557C76.5487 72.5557 77.6643 72.9138 78.5943 73.5307L78.5718 73.5176L78.073 74.6332C77.3399 74.3032 76.4849 74.1045 75.5849 74.0951H75.5812C75.5362 74.0913 75.4855 74.0895 75.433 74.0895C74.908 74.0895 74.4243 74.2732 74.0455 74.5807L74.0493 74.577C73.6949 74.8713 73.4699 75.312 73.468 75.8051C73.468 76.5738 74.0155 77.2338 75.028 77.7963C75.9487 78.3007 77.8087 79.3657 77.8087 79.3657C78.7237 79.9038 79.3293 80.8826 79.3293 82.0038C79.3293 82.0376 79.3293 82.0732 79.3274 82.107V82.1013L79.3162 82.0976ZM83.2012 83.0932C82.6893 82.0713 82.3912 80.8676 82.3912 79.5945C82.3912 79.3938 82.3987 79.1951 82.4137 79.0001L82.4118 79.0263C82.4118 75.7626 83.4037 74.1301 85.3874 74.1288C85.4362 74.1251 85.4943 74.1232 85.5543 74.1232C86.4449 74.1232 87.2268 74.5882 87.6712 75.2895L87.6768 75.2988C88.1849 76.3151 88.483 77.5151 88.483 78.7826C88.483 78.9776 88.4755 79.1707 88.4624 79.362L88.4643 79.3357C88.4643 82.6257 87.4724 84.272 85.4887 84.2745C85.438 84.2782 85.3799 84.2801 85.3218 84.2801C84.4312 84.2801 83.6474 83.8151 83.203 83.1138L83.1974 83.1045L83.2012 83.0932ZM90.9149 86.0032L88.5337 84.8313C88.7512 84.6495 88.9462 84.4582 89.1262 84.252L89.1318 84.2463C90.0937 82.9488 90.6712 81.3157 90.6712 79.5495C90.6712 79.3451 90.6637 79.1426 90.6487 78.942L90.6505 78.9682C90.6505 74.6807 88.9674 72.5357 85.6012 72.5332C85.5262 72.5295 85.438 72.5276 85.3499 72.5276C83.9118 72.5276 82.6199 73.1595 81.7405 74.1626L81.7368 74.1682C80.7787 75.4657 80.203 77.097 80.203 78.8632C80.203 79.062 80.2105 79.2588 80.2255 79.4538L80.2237 79.4276C80.2068 79.617 80.1974 79.8382 80.1974 80.0613C80.1974 81.7001 80.7112 83.2188 81.5849 84.4657L81.568 84.4413C82.4099 85.3376 83.6043 85.8963 84.9262 85.8963C85.0499 85.8963 85.1718 85.8907 85.2918 85.8813L85.2749 85.8832C85.2918 85.8832 85.3143 85.8832 85.3349 85.8832C85.918 85.8832 86.4824 85.7988 87.0168 85.6432L86.9755 85.6545L90.0805 87.4638L90.9243 86.007L90.9149 86.0032ZM98.6924 85.6863H92.5293V72.7301H94.603V84.0945H98.6924V85.6863ZM69.8155 76.1276C69.2774 80.0351 68.0455 83.562 66.2437 86.7213L66.3187 86.577C65.5968 87.9663 64.2318 88.9338 62.6287 89.0895L62.6099 89.0913C62.1243 89.0651 61.6724 88.9488 61.2618 88.7595L61.2843 88.7688V87.612C61.5412 87.6513 61.8374 87.6738 62.1393 87.6738C62.1562 87.6738 62.173 87.6738 62.1918 87.6738C62.2218 87.6757 62.2537 87.6757 62.2874 87.6757C62.8293 87.6757 63.3262 87.4788 63.7087 87.1507L63.7049 87.1526C64.1174 86.8132 64.3818 86.307 64.3968 85.737C64.2974 84.9157 64.108 84.1657 63.8362 83.4588L63.8587 83.5226L61.483 76.1276H63.6149L65.3193 81.657C65.623 82.437 65.7993 83.3407 65.7993 84.2838V84.2876C66.703 81.9213 67.3893 79.1613 67.738 76.2982L67.7549 76.1257L69.8155 76.1276ZM60.403 85.6863H58.2318C58.1705 82.2351 57.9599 78.7907 57.5999 75.3532H57.5812L54.2774 85.6863H52.6255L49.3443 75.3532H49.3218C49.0655 78.792 48.913 82.2363 48.8643 85.6863H46.8843C47.013 81.0801 47.333 76.7607 47.8443 72.7282H50.5387L53.6662 82.2513H53.6849L56.8405 72.7282H59.4055C59.973 77.4495 60.3074 81.7688 60.4087 85.6863H60.403ZM85.3218 54.7732C85.318 54.7732 85.3124 54.7732 85.3068 54.7732C85.0837 54.7732 84.868 54.8013 84.6618 54.8538L84.6805 54.8501V54.8801H84.7124C84.8737 55.1201 85.0387 55.3282 85.2168 55.5232L85.213 55.5195C85.3387 55.7707 85.4474 56.0201 85.573 56.2695L85.6049 56.2338C85.8093 56.0726 85.9387 55.8251 85.9387 55.5476C85.9387 55.5138 85.9368 55.482 85.933 55.4482V55.452C85.8393 55.3413 85.8262 55.2326 85.7455 55.1238C85.6518 54.9663 85.4512 54.8895 85.3237 54.7657L85.3218 54.7732Z" fill="#5D6E7A"/>
<mask id="mask3_24_2" style="mask-type:luminance" maskUnits="userSpaceOnUse" x="349" y="40" width="60" height="60">
<path d="M409 40H349V100H409V40Z" fill="white"/>
</mask>
<g mask="url(#mask3_24_2)">
<path d="M379 54.0027C378.913 54.0027 378.81 54.0027 378.71 54.0027C374.685 54.0027 370.76 54.4402 366.985 55.2702L367.345 55.2027C363.74 55.9602 360.55 57.0802 357.57 58.5602L357.805 58.4552C355.278 59.6727 353.138 61.3027 351.38 63.2802L351.362 63.3002C349.935 64.8602 349.045 66.9327 349 69.2102V69.2202C349.047 71.5052 349.935 73.5727 351.365 75.1377L351.36 75.1302C353.135 77.1277 355.275 78.7577 357.682 79.9227L357.802 79.9752C360.547 81.3477 363.738 82.4702 367.077 83.1802L367.342 83.2277C370.757 83.9902 374.683 84.4277 378.708 84.4277H379.015H379H379.29C383.315 84.4277 387.24 83.9902 391.015 83.1602L390.655 83.2277C394.26 82.4702 397.45 81.3502 400.43 79.8702L400.195 79.9752C402.722 78.7577 404.862 77.1277 406.62 75.1502L406.638 75.1302C408.065 73.5702 408.955 71.4977 409 69.2202V69.2102C408.955 66.9227 408.065 64.8502 406.632 63.2827L406.638 63.2902C404.862 61.2927 402.722 59.6627 400.315 58.4977L400.195 58.4452C397.45 57.0727 394.26 55.9502 390.92 55.2402L390.655 55.1927C387.24 54.4302 383.315 53.9927 379.29 53.9927C379.188 53.9927 379.085 53.9927 378.983 53.9927H378.997L379 54.0027ZM371.2 72.1627C370.872 72.4602 370.5 72.7152 370.095 72.9152L370.068 72.9277C369.715 73.0977 369.298 73.2552 368.863 73.3752L368.81 73.3877C368.38 73.5427 367.882 73.6352 367.362 73.6352C367.342 73.6352 367.323 73.6352 367.302 73.6352H362.375L361.575 78.5427H357.957L361.157 61.8552H368.09C368.135 61.8552 368.19 61.8527 368.245 61.8527C369.145 61.8527 370.01 62.0102 370.81 62.3002L370.757 62.2827C371.495 62.5527 372.123 62.9727 372.628 63.5052L372.63 63.5077C373.067 64.0652 373.38 64.7402 373.515 65.4802L373.52 65.5077C373.582 65.8727 373.62 66.2927 373.62 66.7227C373.62 67.2127 373.573 67.6902 373.483 68.1552L373.49 68.1077C373.4 68.5552 373.283 68.9452 373.135 69.3202L373.153 69.2727C373.009 69.641 372.856 69.9885 372.693 70.3152C372.489 70.6419 372.264 70.9694 372.017 71.2977C371.778 71.6202 371.515 71.9027 371.225 72.1552L371.218 72.1602L371.2 72.1627ZM381.63 73.6352L383.042 66.5802C383.103 66.3127 383.138 66.0077 383.138 65.6927C383.138 65.6277 383.135 65.5627 383.132 65.4977V65.5077C383.13 65.2352 383.025 64.9877 382.855 64.8002C382.682 64.6502 382.478 64.5352 382.252 64.4652L382.24 64.4627C381.927 64.3627 381.568 64.3077 381.195 64.3077C381.153 64.3077 381.11 64.3077 381.067 64.3102H381.073H378.257L376.417 73.6352H372.86L376.06 57.4352H379.618L378.76 61.8527H381.96C382.015 61.8527 382.077 61.8502 382.143 61.8502C382.97 61.8502 383.775 61.9527 384.545 62.1427L384.478 62.1277C385.1 62.2652 385.642 62.5577 386.08 62.9577L386.077 62.9552C386.468 63.2627 386.745 63.7002 386.842 64.2002L386.845 64.2127C386.88 64.4352 386.9 64.6902 386.9 64.9502C386.9 65.3752 386.847 65.7877 386.745 66.1802L386.752 66.1452L385.28 73.6302L381.63 73.6352ZM401.385 68.1752C401.285 68.6277 401.18 68.9952 401.055 69.3577L401.077 69.2802C400.942 69.6777 400.777 70.0227 400.575 70.3427L400.588 70.3227C400.415 70.7102 400.21 71.0427 399.967 71.3427L399.975 71.3327C399.73 71.6377 399.467 71.9077 399.182 72.1552L399.175 72.1627C398.847 72.4602 398.475 72.7152 398.07 72.9152L398.043 72.9277C397.69 73.0977 397.272 73.2552 396.838 73.3752L396.785 73.3877C396.355 73.5427 395.857 73.6352 395.338 73.6352C395.318 73.6352 395.298 73.6352 395.278 73.6352H390.35L389.493 78.5327H385.935L389.135 61.8452H396.007C396.062 61.8427 396.125 61.8427 396.19 61.8427C397.102 61.8427 397.98 62.0002 398.792 62.2927L398.738 62.2752C399.455 62.5352 400.06 62.9552 400.533 63.4952L400.537 63.5002C401.013 64.0552 401.35 64.7427 401.482 65.4977L401.488 65.5227C401.543 65.8502 401.575 66.2252 401.575 66.6102C401.575 67.1627 401.51 67.6977 401.388 68.2127L401.397 68.1652L401.385 68.1752ZM394.635 64.3077H392.19L390.908 71.1802H393.048H393.177C393.802 71.1802 394.418 71.1227 395.013 71.0152L394.95 71.0252C395.46 70.9352 395.915 70.7527 396.315 70.4952L396.3 70.5027C396.64 70.1977 396.925 69.8452 397.148 69.4502L397.158 69.4302C397.415 68.9602 397.608 68.4127 397.705 67.8352L397.71 67.8052C397.787 67.4827 397.83 67.1102 397.83 66.7277C397.83 66.5427 397.82 66.3602 397.8 66.1827L397.802 66.2052C397.767 65.8102 397.623 65.4527 397.4 65.1577L397.403 65.1627C397.112 64.8927 396.765 64.6827 396.38 64.5552L396.36 64.5502C395.895 64.3952 395.362 64.3077 394.807 64.3077C394.75 64.3077 394.692 64.3077 394.637 64.3102H394.645L394.635 64.3077ZM366.66 64.3077H364.215L362.927 71.1802H365.073H365.202C365.827 71.1802 366.443 71.1227 367.038 71.0152L366.975 71.0252C367.485 70.9352 367.94 70.7527 368.34 70.4952L368.325 70.5027C368.665 70.1977 368.95 69.8452 369.173 69.4502L369.182 69.4302C369.44 68.9602 369.632 68.4127 369.73 67.8352L369.735 67.8052C369.812 67.4827 369.855 67.1102 369.855 66.7277C369.855 66.5427 369.845 66.3602 369.825 66.1827L369.828 66.2052C369.793 65.8102 369.648 65.4527 369.425 65.1577L369.427 65.1627C369.137 64.8927 368.79 64.6827 368.405 64.5552L368.385 64.5502C367.92 64.3952 367.387 64.3077 366.833 64.3077C366.775 64.3077 366.718 64.3077 366.663 64.3102H366.67L366.66 64.3077Z" fill="#5D6E7A"/>
</g>
<mask id="mask4_24_2" style="mask-type:luminance" maskUnits="userSpaceOnUse" x="801" y="497" width="60" height="60">
<path d="M861 497H801V557H861V497Z" fill="white"/>
</mask>
<g mask="url(#mask4_24_2)">
<path d="M847.282 514.01L847.845 513.159L848.827 513.755L849.262 514.066C850.312 514.876 852.521 516.946 852.997 520.381C853.834 520.231 854.677 520.156 855.521 520.156C857.524 520.156 858.87 520.621 859.635 521.007L860.029 521.221L860.284 521.39L861 521.975L860.752 522.725C860.368 523.753 859.767 524.687 858.99 525.463C857.902 526.584 855.99 527.908 852.956 528.08L852.289 528.099H851.734C850.346 531.763 848.482 535.891 845.351 539.596C843.493 541.798 841.289 543.683 838.826 545.176C835.873 546.928 832.639 548.156 829.267 548.806C826.852 549.275 824.4 549.507 821.944 549.5C816.506 549.5 811.706 548.42 808.755 546.53C806.119 544.846 804.094 542.097 802.732 538.366C801.541 534.957 800.956 531.365 801.004 527.754C800.997 527.291 801.158 526.841 801.455 526.486C801.752 526.131 802.167 525.894 802.624 525.819L802.879 525.8H842.404L842.749 525.774L843.307 525.714C844.267 525.586 845.73 525.301 846.757 524.701C845.527 522.665 845.179 520.284 845.752 517.749C845.993 516.691 846.371 515.67 846.877 514.711L847.282 514.01ZM811.837 518.69L811.987 518.716C812.056 518.742 812.118 518.783 812.168 518.836C812.218 518.89 812.255 518.954 812.276 519.024L812.299 519.174V524.105L812.276 524.259C812.255 524.329 812.217 524.394 812.166 524.447C812.115 524.5 812.053 524.541 811.984 524.566L811.837 524.589H806.542C806.444 524.587 806.348 524.555 806.269 524.495C806.19 524.436 806.132 524.353 806.104 524.259L806.077 524.109V519.17L806.104 519.02C806.125 518.949 806.162 518.884 806.213 518.83C806.264 518.776 806.327 518.734 806.396 518.709L806.542 518.686L811.837 518.69ZM819.139 518.69L819.285 518.716C819.354 518.741 819.417 518.782 819.467 518.836C819.518 518.889 819.556 518.953 819.577 519.024L819.6 519.174V524.105L819.574 524.259C819.552 524.329 819.514 524.394 819.464 524.447C819.413 524.5 819.35 524.541 819.281 524.566L819.135 524.589H813.84C813.741 524.587 813.646 524.554 813.567 524.495C813.488 524.435 813.43 524.353 813.401 524.259L813.375 524.112V519.174C813.374 519.073 813.404 518.975 813.461 518.893C813.518 518.81 813.6 518.747 813.694 518.712L813.84 518.686L819.139 518.69ZM826.549 518.69L826.695 518.716C826.763 518.742 826.825 518.783 826.875 518.836C826.925 518.89 826.962 518.954 826.984 519.024L827.01 519.174V524.105L826.984 524.259C826.962 524.329 826.924 524.394 826.874 524.447C826.823 524.5 826.76 524.541 826.691 524.566L826.545 524.589H821.25C821.151 524.587 821.056 524.555 820.977 524.495C820.898 524.436 820.84 524.353 820.811 524.259L820.789 524.109V519.17L820.811 519.02C820.832 518.949 820.87 518.884 820.921 518.83C820.971 518.776 821.034 518.734 821.104 518.709L821.25 518.686L826.549 518.69ZM833.869 518.69L834.015 518.716C834.084 518.741 834.147 518.782 834.197 518.836C834.248 518.889 834.286 518.953 834.307 519.024L834.334 519.174V524.105C834.334 524.205 834.304 524.303 834.247 524.386C834.19 524.469 834.109 524.532 834.015 524.566L833.865 524.589H828.574C828.475 524.587 828.379 524.555 828.3 524.495C828.222 524.436 828.164 524.353 828.135 524.259L828.112 524.109V519.17L828.135 519.02C828.156 518.949 828.194 518.884 828.244 518.83C828.295 518.776 828.358 518.734 828.427 518.709L828.577 518.686H833.872L833.869 518.69ZM841.256 518.69L841.402 518.716C841.472 518.741 841.534 518.782 841.585 518.836C841.636 518.889 841.673 518.953 841.695 519.024L841.717 519.174V524.105C841.718 524.205 841.688 524.303 841.631 524.386C841.574 524.469 841.493 524.532 841.399 524.566L841.252 524.589H835.957C835.859 524.587 835.763 524.555 835.684 524.495C835.605 524.436 835.547 524.353 835.519 524.259L835.496 524.109V519.17L835.519 519.02C835.54 518.949 835.577 518.884 835.628 518.83C835.679 518.776 835.742 518.734 835.811 518.709L835.961 518.686H841.252L841.256 518.69ZM819.131 511.595L819.281 511.621C819.349 511.647 819.411 511.687 819.461 511.74C819.511 511.792 819.548 511.856 819.57 511.925L819.596 512.079V517.01C819.597 517.11 819.567 517.208 819.51 517.291C819.453 517.374 819.372 517.437 819.277 517.471L819.131 517.498H813.84C813.74 517.495 813.644 517.461 813.565 517.4C813.487 517.34 813.429 517.256 813.401 517.16L813.375 517.01V512.079C813.375 511.979 813.405 511.882 813.462 511.8C813.519 511.718 813.6 511.656 813.694 511.621L813.84 511.595H819.131ZM826.541 511.595L826.691 511.621C826.759 511.647 826.821 511.687 826.871 511.74C826.921 511.792 826.958 511.856 826.98 511.925L827.006 512.079V517.01C827.007 517.11 826.977 517.208 826.92 517.291C826.863 517.374 826.782 517.437 826.687 517.471L826.541 517.498H821.25C821.15 517.495 821.054 517.461 820.975 517.4C820.897 517.34 820.839 517.256 820.811 517.16L820.789 517.01V512.079L820.811 511.929C820.833 511.858 820.871 511.794 820.921 511.741C820.972 511.687 821.034 511.646 821.104 511.621L821.25 511.595H826.541ZM833.865 511.595C834.067 511.595 834.24 511.734 834.304 511.925L834.33 512.079V517.01C834.331 517.11 834.301 517.208 834.243 517.291C834.186 517.374 834.105 517.437 834.011 517.471L833.861 517.498H828.574C828.474 517.495 828.378 517.461 828.299 517.4C828.22 517.34 828.163 517.256 828.135 517.16L828.112 517.01V512.079L828.135 511.929C828.157 511.858 828.194 511.794 828.245 511.741C828.296 511.687 828.358 511.646 828.427 511.621L828.577 511.595H833.872H833.865ZM833.865 504.5C834.067 504.5 834.24 504.639 834.304 504.83L834.33 504.98V509.915C834.331 510.015 834.301 510.113 834.243 510.196C834.186 510.279 834.105 510.342 834.011 510.376L833.861 510.399H828.574C828.475 510.397 828.379 510.365 828.3 510.305C828.222 510.246 828.164 510.163 828.135 510.069L828.112 509.919V504.98L828.135 504.83C828.157 504.76 828.194 504.695 828.245 504.642C828.296 504.589 828.358 504.548 828.427 504.523L828.574 504.5H833.869H833.865Z" fill="#5D6E7A"/>
</g>
<path d="M599.5 150.5H300.5V449.5H599.5V150.5Z" stroke="#5D6E7A"/>
<path d="M0 449.5H900" stroke="#5D6E7A"/>
<path d="M0 299.5H300" stroke="#5D6E7A"/>
<path d="M900 300.5H600" stroke="#5D6E7A"/>
<path d="M0 150.5H300" stroke="#5D6E7A"/>
<path d="M900 150.5H600" stroke="#5D6E7A"/>
<path d="M300.5 0V150" stroke="#5D6E7A"/>
<path d="M150.5 0V600" stroke="#5D6E7A"/>
<path d="M300.5 450V600" stroke="#5D6E7A"/>
<path d="M450.5 0V150" stroke="#5D6E7A"/>
<path d="M450.5 450V600" stroke="#5D6E7A"/>
<path d="M599.5 0V150" stroke="#5D6E7A"/>
<path d="M750.5 0V150" stroke="#5D6E7A"/>
<path d="M750.5 150V300" stroke="#5D6E7A"/>
<path d="M750.5 300V600" stroke="#5D6E7A"/>
<path d="M599.5 450V600" stroke="#5D6E7A"/>
<path d="M221 361.879L214.497 350.616H205.189L221 378.001L236.811 350.616H227.503L221 361.879Z" fill="#5D6E7A"/>
<path d="M238.977 350.616L221 381.751L203.024 350.616H192.845L221 399.384L249.156 350.616H238.977Z" fill="#5D6E7A"/>
<path d="M225.001 497C208.978 497 196 509.978 196 526.001C195.995 532.09 197.908 538.025 201.467 542.964C205.026 547.904 210.051 551.596 215.828 553.518C217.278 553.77 217.824 552.9 217.824 552.138C217.824 551.45 217.786 549.168 217.786 546.737C210.501 548.08 208.616 544.963 208.036 543.33C207.708 542.495 206.296 539.922 205.063 539.232C204.048 538.69 202.598 537.347 205.025 537.312C207.311 537.274 208.94 539.415 209.486 540.285C212.096 544.67 216.263 543.437 217.931 542.677C218.186 540.792 218.946 539.525 219.781 538.8C213.328 538.075 206.586 535.572 206.586 524.479C206.586 521.324 207.708 518.716 209.558 516.686C209.268 515.961 208.253 512.988 209.848 509.001C209.848 509.001 212.276 508.238 217.824 511.971C220.185 511.317 222.624 510.988 225.074 510.993C227.539 510.993 230.004 511.318 232.324 511.971C237.872 508.2 240.3 509.001 240.3 509.001C241.895 512.988 240.88 515.961 240.59 516.686C242.437 518.716 243.562 521.289 243.562 524.479C243.562 535.61 236.785 538.075 230.332 538.8C231.382 539.705 232.29 541.445 232.29 544.165C232.29 548.043 232.252 551.16 232.252 552.14C232.252 552.9 232.797 553.805 234.247 553.515C240.002 551.569 245.003 547.869 248.546 542.934C252.09 537.998 253.997 532.077 254 526.001C254 509.978 241.022 497 224.999 497" fill="#5D6E7A"/>
<path d="M223.028 195L193 225L202.248 234.247L241.458 195.03H223.068L223.028 195ZM223.068 222.675L206.884 238.817L223.068 255H241.495L225.342 238.828L241.495 222.675H223.068Z" fill="#5D6E7A"/>
<path d="M230.755 37.3623C227.249 33.1796 224.231 28.9312 223.614 28.049C223.599 28.0335 223.582 28.0212 223.562 28.0128C223.543 28.0043 223.522 28 223.5 28C223.479 28 223.458 28.0043 223.439 28.0128C223.419 28.0212 223.401 28.0335 223.387 28.049C222.77 28.9313 219.751 33.1796 216.246 37.3623C186.157 75.9554 220.985 102 220.985 102L221.277 102.196C221.537 106.216 222.186 112 222.186 112H224.783C224.783 112 225.432 106.248 225.691 102.197L225.984 101.968C226.016 102 260.844 75.9556 230.755 37.3623ZM223.484 101.412C223.484 101.412 221.926 100.072 221.504 99.3862V99.3206L223.387 57.2962C223.387 57.1656 223.582 57.1656 223.582 57.2962L225.464 99.3206V99.3862C225.042 100.072 223.484 101.412 223.484 101.412" fill="#5D6E7A"/>
<mask id="mask5_24_2" style="mask-type:luminance" maskUnits="userSpaceOnUse" x="795" y="40" width="60" height="60">
<path d="M795 40H855V100H795V40Z" fill="white"/>
</mask>
<g mask="url(#mask5_24_2)">
<path d="M824.785 40C809.55 40 810.5 46.64 810.5 46.64L810.517 53.52H825.052V55.585H804.75C804.75 55.585 795 54.4725 795 69.9225C795 85.3725 803.508 84.8225 803.508 84.8225H808.583V77.655C808.583 77.655 808.31 69.105 816.957 69.105H831.372C831.372 69.105 839.472 69.235 839.472 61.235V48.005C839.472 48.005 840.702 40 824.785 40ZM816.77 44.625C818.215 44.625 819.385 45.8 819.385 47.255C819.385 48.7075 818.215 49.8825 816.77 49.8825C815.323 49.8825 814.155 48.7075 814.155 47.255C814.155 45.8 815.323 44.625 816.77 44.625Z" fill="#5D6E7A"/>
<path d="M825.217 100C840.447 100 839.497 93.3602 839.497 93.3602L839.48 86.4802H824.945V84.4152H845.252C845.252 84.4152 855.002 85.5277 855.002 70.0777C855.002 54.6277 846.492 55.1777 846.492 55.1777H841.417V62.3452C841.417 62.3452 841.69 70.8952 833.042 70.8952H818.63C818.63 70.8952 810.53 70.7652 810.53 78.7652V91.9952C810.53 91.9952 809.3 100 825.217 100ZM833.232 95.3752C831.785 95.3752 830.617 94.2002 830.617 92.7452C830.617 91.2927 831.785 90.1177 833.232 90.1177C834.677 90.1177 835.847 91.2927 835.847 92.7452C835.847 94.2002 834.677 95.3752 833.232 95.3752Z" fill="#5D6E7A"/>
</g>
<path d="M343.182 536.455C344.026 536.455 344.835 536.79 345.432 537.386C346.028 537.983 346.364 538.792 346.364 539.636C346.364 540.48 346.028 541.29 345.432 541.886C344.835 542.483 344.026 542.818 343.182 542.818C342.338 542.818 341.529 542.483 340.932 541.886C340.335 541.29 340 540.48 340 539.636C340 538.792 340.335 537.983 340.932 537.386C341.529 536.79 342.338 536.455 343.182 536.455ZM403.636 542.818H397.273V517.364H390.909V511H410V517.364H403.636V542.818ZM387.727 511V517.364H381.364V523.727H387.727V530.091H381.364V536.455H387.727V542.818H375V511H387.727ZM371.818 511V542.818H365.455L355.909 523.727V542.818H349.545V511H355.909L365.455 530.091V511H371.818Z" fill="#5D6E7A"/>
</g>
<defs>
<clipPath id="clip0_24_2">
<rect width="900" height="600" fill="white"/>
</clipPath>
</defs>
</svg>
